<?xml version="1.0" standalone="no"?>
<!-- Hovercraft (2026-09-22 hovercraft amendment §4): a hull on its air cushion
     with a thrust duct aft, drawn to sit beside shipSVG.svg in the same
     300×100 box and the same solid black fill. -->
<svg version="1.1" xmlns="http://www.w3.org/2000/svg"
 width="300pt" height="100pt" viewBox="0 0 300 100"
 preserveAspectRatio="xMidYMid meet">
<g fill="#000000" stroke="none">
<path d="M40 60 H260 A12 12 0 0 1 260 84 H40 A12 12 0 0 1 40 60 Z"/>
<path d="M60 60 L78 46 H196 L214 60 Z"/>
<rect x="96" y="28" width="78" height="18" rx="3"/>
<path fill-rule="evenodd" d="M204 34 A18 18 0 1 0 240 34 A18 18 0 1 0 204 34 Z M211 34 A11 11 0 1 0 233 34 A11 11 0 1 0 211 34 Z"/>
<rect x="219" y="50" width="6" height="12"/>
<rect x="44" y="90" width="44" height="4" rx="2"/>
<rect x="128" y="90" width="44" height="4" rx="2"/>
<rect x="212" y="90" width="44" height="4" rx="2"/>
</g>
</svg>
